<?xml version="1.0" standalone="no"?>
<!DOCTYPE svg PUBLIC "-//W3C//DTD SVG 20010904//EN"
 "http://www.w3.org/TR/2001/REC-SVG-20010904/DTD/svg10.dtd">
<svg version="1.0" xmlns="http://www.w3.org/2000/svg"
 width="193.000000pt" height="168.000000pt" viewBox="0 0 193.000000 168.000000"
 preserveAspectRatio="xMidYMid meet">
<metadata>
Created by potrace 1.15, written by Peter Selinger 2001-2017
</metadata>
<g transform="translate(0.000000,168.000000) scale(0.100000,-0.100000)"
fill="#be7232" stroke="none">
<path d="M908 1612 c2 -31 -4 -84 -12 -117 l-14 -60 -1 60 c-2 68 -14 59 -26
-20 l-8 -50 -16 62 c-29 110 -42 91 -17 -25 l13 -63 -43 42 c-68 67 -62 39 10
-46 70 -81 72 -87 55 -131 l-10 -28 -25 43 c-13 24 -49 70 -79 102 -42 46 -59
74 -76 129 -23 71 -44 96 -32 38 6 -31 6 -31 -18 -15 -36 26 -57 22 -32 -5 11
-13 35 -45 53 -73 19 -27 49 -66 68 -87 19 -21 32 -38 29 -38 -3 0 -34 7 -69
16 -46 12 -73 26 -100 52 -44 41 -50 35 -12 -11 24 -29 25 -31 8 -38 -16 -6
-15 -8 7 -8 41 -1 159 -132 159 -177 0 -2 -31 29 -69 69 -38 39 -72 69 -76 66
-3 -4 21 -40 53 -81 33 -41 65 -84 71 -96 l12 -22 -53 21 c-106 41 -161 70
-239 124 -82 58 -99 62 -51 12 l27 -29 -43 22 c-24 12 -46 19 -49 17 -16 -17
177 -116 347 -177 36 -12 74 -32 85 -43 20 -19 20 -19 -15 -1 -19 10 -63 21
-97 25 -53 5 -69 12 -103 43 -22 20 -48 36 -58 36 -14 0 -12 -4 8 -20 27 -20
26 -24 -10 -39 l-25 -10 23 0 c13 -1 38 -7 55 -15 18 -8 61 -16 95 -19 47 -4
76 -13 110 -34 45 -28 47 -30 83 -146 20 -65 32 -114 25 -109 -100 77 -128
101 -164 143 -24 27 -49 49 -55 49 -7 0 -46 20 -87 45 -92 55 -109 57 -50 6
34 -30 42 -42 33 -52 -5 -8 -13 -26 -15 -41 -5 -24 -2 -28 19 -28 13 0 34 11
47 23 19 19 28 22 42 14 25 -13 74 -59 74 -69 0 -13 -68 -9 -105 6 -19 8 -35
11 -35 6 0 -18 79 -50 124 -50 38 0 48 -4 62 -26 10 -14 34 -34 54 -44 20 -10
42 -26 49 -34 26 -31 -13 -14 -94 40 -35 24 -73 38 -127 48 -92 18 -114 28
-150 70 -36 43 -118 110 -118 96 0 -6 19 -31 41 -55 23 -25 38 -45 33 -45 -5
0 -43 9 -83 21 -41 11 -90 19 -110 17 l-36 -4 35 -10 c27 -8 34 -16 33 -32 -3
-26 4 -28 26 -8 14 12 25 11 84 -7 64 -21 67 -23 51 -39 -23 -23 -13 -32 19
-17 21 9 36 8 76 -5 27 -9 66 -16 86 -16 50 0 251 -139 259 -179 3 -14 8 -43
12 -65 l7 -39 -66 51 c-36 27 -88 57 -116 67 -54 18 -71 36 -72 82 l0 28 -10
-24 -10 -25 -22 32 c-12 17 -42 40 -67 51 -46 19 -200 35 -200 20 0 -11 29
-17 103 -22 81 -5 100 -27 25 -27 -31 0 -60 -4 -63 -10 -4 -6 5 -10 21 -10 26
0 27 0 9 -20 -23 -25 -14 -25 27 0 45 27 89 26 116 -3 12 -13 22 -31 22 -40 0
-32 -15 -31 -115 8 -16 6 -15 2 7 -21 25 -25 36 -29 95 -31 38 -1 73 -2 80 -2
9 -1 9 -9 1 -31 -8 -26 -7 -34 7 -50 24 -27 13 -25 -85 10 -98 36 -215 102
-250 141 -14 15 -37 30 -53 33 -35 8 -35 0 2 -18 16 -9 31 -22 34 -30 5 -11
-7 -10 -64 6 -83 23 -142 21 -66 -3 l49 -15 -41 -19 c-53 -24 -53 -38 0 -20
77 28 192 14 132 -15 -15 -7 -35 -13 -43 -12 -26 3 -40 -13 -47 -51 -5 -32 -3
-37 13 -37 30 0 64 29 64 55 0 17 8 26 32 34 27 10 39 8 77 -11 25 -13 44 -27
42 -33 -4 -11 -118 -53 -166 -61 -16 -3 -37 -8 -45 -11 -8 -3 -23 -5 -32 -4
-10 1 -18 -2 -18 -8 0 -5 8 -12 18 -15 9 -3 31 -18 47 -32 27 -23 28 -25 8
-21 -13 3 -23 1 -23 -3 0 -5 17 -12 37 -16 32 -6 133 -67 133 -80 0 -10 -57
10 -75 27 -12 10 -36 24 -55 30 -19 7 -46 22 -60 34 -38 33 -130 69 -143 56
-8 -8 -6 -11 8 -11 15 0 16 -3 7 -12 -7 -7 -12 -18 -12 -26 0 -10 4 -10 22 2
12 9 27 16 33 16 5 -1 -1 -7 -15 -15 l-25 -14 25 -1 c23 0 130 -63 130 -76 0
-9 -105 9 -132 22 -15 8 -37 14 -50 14 -21 -1 -20 -2 7 -15 25 -11 27 -14 9
-14 -16 -1 -21 -7 -21 -26 0 -24 0 -24 30 -9 49 26 262 2 462 -51 50 -14 132
-29 182 -35 95 -10 170 -31 211 -56 17 -12 22 -24 22 -59 0 -45 0 -45 35 -45
l35 0 0 54 c0 30 4 58 10 61 5 3 49 10 97 16 48 5 118 14 155 18 55 7 82 5
144 -10 69 -18 97 -19 81 -3 -3 3 -29 12 -59 19 l-53 13 55 2 c45 2 50 4 25 9
-26 6 -28 8 -10 14 12 4 53 -2 94 -13 40 -12 75 -19 78 -17 6 7 -20 24 -52 34
-29 10 -27 11 30 19 33 5 101 8 150 7 72 -2 87 0 74 10 -16 12 -14 37 3 48 5
3 -17 9 -49 13 -32 3 -94 14 -137 23 l-80 17 69 23 c38 13 76 23 84 23 13 0
60 -18 150 -57 11 -5 11 -2 1 16 -6 13 -30 32 -53 42 l-42 20 65 -5 c53 -5 60
-4 40 6 -14 6 -58 11 -98 12 -53 1 -71 4 -67 14 16 40 14 44 -12 15 -43 -49
-130 -83 -206 -81 l-62 1 55 7 c30 4 46 8 35 9 -15 2 -10 7 20 21 22 10 34 19
26 19 -11 1 -9 7 6 23 52 58 41 59 -34 2 -26 -20 -59 -34 -90 -39 -26 -3 -58
-13 -70 -21 -14 -8 -48 -14 -89 -14 l-67 0 35 28 c33 26 70 44 182 92 50 21
60 39 12 20 -15 -5 -37 -10 -48 -10 -20 0 -21 1 -3 20 10 11 44 30 77 41 32
12 58 24 58 26 0 8 -93 -8 -115 -19 -11 -6 -37 -26 -57 -46 l-38 -36 -1 34 c0
32 -1 33 -9 12 -6 -13 -24 -43 -40 -68 -34 -48 -115 -96 -202 -120 -45 -11
-47 -11 -38 6 17 32 131 129 232 197 99 66 99 66 171 67 40 0 86 -3 102 -7
l30 -7 -24 20 c-15 13 -38 20 -65 20 l-41 0 32 20 c51 31 75 33 136 12 57 -19
80 -12 32 10 -14 6 -25 14 -25 18 0 3 23 14 50 24 51 19 73 36 45 36 -8 0 -30
-6 -48 -13 -18 -8 -55 -17 -84 -21 -29 -3 -71 -13 -95 -22 -24 -8 -38 -11 -33
-5 15 14 221 77 298 91 80 15 92 35 15 25 l-53 -6 28 25 c43 39 32 39 -27 0
-30 -20 -59 -34 -65 -33 -6 2 16 33 49 69 33 36 59 69 60 73 0 5 -42 -29 -93
-76 -68 -63 -103 -88 -136 -97 -23 -6 -45 -10 -46 -8 -2 2 11 28 30 58 19 30
31 57 29 60 -3 3 -10 -3 -15 -12 -36 -64 -95 -122 -153 -148 -78 -36 -106 -44
-106 -31 0 5 10 17 23 26 68 49 90 67 74 61 -11 -3 -30 -9 -44 -13 -23 -5 -25
-3 -20 16 3 11 2 21 -3 21 -4 0 -10 -13 -13 -30 -4 -17 -13 -30 -21 -30 -9 0
-32 -14 -52 -32 -30 -27 -39 -30 -55 -20 -15 10 -19 9 -19 -2 0 -8 5 -18 10
-21 6 -3 10 -10 10 -14 0 -8 -69 -35 -75 -29 -2 2 14 41 36 87 47 96 58 103
193 124 76 13 90 18 135 56 63 53 67 73 6 26 -46 -34 -127 -65 -173 -65 -21 0
-16 6 33 46 31 25 54 48 52 51 -5 4 -91 -44 -139 -78 -36 -26 -43 -24 -23 9
33 52 70 83 145 123 78 42 110 66 110 81 0 5 -33 -9 -74 -31 -40 -23 -78 -41
-83 -41 -14 0 13 124 28 129 7 2 48 22 93 44 58 28 97 56 139 100 31 33 55 62
52 65 -3 3 -30 -18 -60 -47 -36 -35 -85 -66 -141 -92 -48 -22 -88 -38 -91 -35
-6 6 35 43 76 69 46 28 24 34 -28 7 l-41 -21 6 43 c4 24 14 52 24 63 10 11 20
34 23 50 3 17 9 39 13 50 7 17 6 18 -8 7 -9 -7 -20 -27 -23 -43 -4 -16 -11
-31 -16 -34 -15 -10 -10 13 12 56 28 56 17 60 -21 7 -23 -32 -30 -50 -26 -70
4 -21 1 -28 -15 -33 -11 -4 -23 -5 -25 -2 -11 11 48 115 96 171 28 32 49 60
47 63 -5 4 -70 -50 -100 -84 -12 -13 -24 -23 -28 -23 -3 0 -12 20 -19 45 -19
68 -29 54 -14 -20 l14 -64 -39 -83 c-21 -46 -45 -89 -54 -97 -20 -16 -19 -17
-37 74 -7 33 -16 78 -21 100 -4 22 -8 72 -9 110 0 84 -19 71 -21 -15 l-1 -55
-21 62 c-12 34 -28 68 -36 75 -12 11 -13 10 -7 -6 4 -11 18 -59 32 -109 14
-49 31 -99 38 -111 8 -11 17 -32 21 -45 6 -19 -6 -13 -59 33 -36 31 -71 56
-76 56 -6 0 -3 -17 7 -37 18 -41 20 -150 2 -167 -6 -6 -9 -6 -9 1 0 6 -20 35
-45 65 -25 30 -45 61 -45 68 0 7 27 39 60 70 48 46 60 63 60 88 0 55 -16 80
-52 84 -29 3 -33 7 -40 43 -13 62 -23 60 -20 -3z m-119 -367 c7 -7 24 -80 38
-161 14 -82 38 -187 55 -234 42 -121 41 -120 30 -120 -33 0 -49 43 -116 302
-38 149 -59 198 -109 255 l-32 37 60 -33 c33 -18 66 -39 74 -46z m516 16 c-8
-16 -19 -66 -24 -110 -7 -64 -15 -91 -41 -131 -18 -27 -33 -50 -34 -50 0 0 1
48 2 107 3 85 9 118 27 160 21 47 27 53 55 53 l31 0 -16 -29z m-367 -54 c45
-67 52 -93 25 -100 -13 -4 -12 -5 5 -6 27 -1 29 -6 41 -93 10 -72 -4 -171 -32
-225 l-15 -28 -12 45 c-6 25 -22 79 -35 120 -36 109 -55 248 -42 305 6 25 13
45 16 45 4 0 25 -28 49 -63z m201 -33 c30 -81 42 -184 23 -184 -5 0 -17 18
-27 41 -17 38 -48 70 -91 95 -18 10 -17 13 14 48 17 20 32 45 32 55 0 15 8 31
16 31 1 0 16 -38 33 -86z m-564 -700 c33 -15 113 -47 178 -72 97 -37 118 -49
123 -69 4 -13 4 -26 2 -29 -3 -2 -31 7 -62 22 -64 29 -144 45 -132 26 4 -7 22
-12 39 -12 27 -1 29 -2 14 -11 -26 -15 -114 17 -149 55 -31 34 -37 26 -10 -18
10 -16 36 -36 62 -47 l45 -18 -40 0 c-22 0 -59 4 -82 8 -24 5 -43 7 -43 5 0
-14 75 -34 129 -35 48 0 60 -3 45 -9 -22 -9 -39 -28 -32 -35 2 -3 22 5 45 16
31 15 56 19 109 17 67 -3 69 -4 72 -31 l3 -27 -103 6 c-134 7 -193 19 -232 47
-25 18 -170 87 -183 87 -2 0 -3 -3 -3 -7 0 -12 61 -49 91 -56 23 -6 110 -67
95 -67 -21 0 -126 35 -126 42 0 4 -33 32 -72 62 -40 30 -86 66 -103 80 l-30
25 32 1 c17 0 43 4 57 9 24 10 24 9 19 -27 l-5 -37 26 37 c34 49 93 88 131 88
16 0 57 -12 90 -26z m693 -163 c-31 -16 -72 -40 -90 -54 -35 -27 -115 -66
-134 -67 -14 0 -28 80 -16 92 11 11 217 56 262 57 35 1 34 0 -22 -28z m305 -2
c34 -11 89 -22 122 -25 33 -3 71 -8 85 -11 25 -6 25 -6 -5 -14 -16 -5 -90 -16
-162 -24 -73 -9 -146 -18 -163 -21 -53 -11 -32 3 40 25 39 12 70 26 70 30 0
13 -103 -6 -173 -33 -70 -27 -112 -33 -121 -17 -3 5 14 17 39 28 78 32 49 34
-37 3 -100 -36 -93 -28 32 39 91 50 97 51 153 45 32 -3 86 -15 120 -25z"/>
</g>
</svg>
