<?xml version="1.0" encoding="UTF-8"?>
<svg xmlns="http://www.w3.org/2000/svg" xmlns:xlink="http://www.w3.org/1999/xlink" width="52pt" height="46pt" viewBox="0 0 52 46" version="1.1">
<g id="surface1">
<path style=" stroke:none;fill-rule:nonzero;fill:rgb(74.509804%,44.705882%,19.607843%);fill-opacity:1;" d="M 24.5 2.179688 C 24.535156 3.691406 24.5 4.117188 24.296875 4.867188 C 24.167969 5.351562 23.941406 6.378906 23.796875 7.140625 C 23.511719 8.65625 23.285156 9.296875 23.382812 8.292969 C 23.464844 7.515625 23.570312 2.722656 23.5 3.207031 C 23.167969 5.507812 23.058594 6.125 22.929688 6.511719 L 22.773438 6.960938 L 22.644531 6.535156 C 22.570312 6.308594 22.367188 5.542969 22.203125 4.84375 C 22.023438 4.152344 21.832031 3.5 21.773438 3.390625 C 21.558594 3.027344 21.820312 5.277344 22.144531 6.574219 L 22.464844 7.867188 L 21.855469 7.289062 C 20.867188 6.355469 19.882812 5.53125 19.820312 5.59375 C 19.785156 5.628906 20.332031 6.34375 21.035156 7.203125 C 21.75 8.050781 22.535156 9.03125 22.808594 9.371094 L 23.296875 9.988281 L 23.132812 10.820312 C 23.035156 11.28125 22.882812 11.828125 22.773438 12.019531 L 22.59375 12.382812 L 22.179688 11.546875 C 21.558594 10.339844 20.917969 9.417969 20.308594 8.886719 C 19.535156 8.207031 18.582031 6.949219 18.203125 6.113281 C 18.023438 5.714844 17.714844 4.828125 17.5 4.152344 C 17.296875 3.460938 17.070312 2.882812 17.011719 2.84375 C 16.855469 2.734375 16.894531 3.460938 17.082031 4.296875 C 17.179688 4.683594 17.238281 5.035156 17.214844 5.058594 C 17.191406 5.070312 16.976562 4.828125 16.738281 4.492188 C 16.429688 4.054688 16.15625 3.835938 15.761719 3.679688 C 15.09375 3.425781 14.976562 3.523438 15.464844 3.945312 C 15.667969 4.117188 16.40625 5.097656 17.082031 6.113281 C 17.761719 7.128906 18.703125 8.375 19.167969 8.898438 C 19.632812 9.417969 19.988281 9.855469 19.964844 9.878906 C 19.941406 9.902344 19.632812 9.804688 19.273438 9.671875 C 18.25 9.261719 17.117188 8.957031 16.667969 8.957031 C 16.308594 8.957031 16.117188 8.824219 15.214844 7.90625 C 14.644531 7.324219 14.144531 6.886719 14.105469 6.925781 C 14.058594 6.960938 14.382812 7.433594 14.808594 7.976562 L 15.59375 8.957031 L 15.117188 8.957031 C 14.441406 8.957031 14.523438 9.164062 15.238281 9.261719 C 15.953125 9.355469 16.679688 9.914062 17.90625 11.269531 C 18.761719 12.238281 18.855469 12.40625 19.394531 13.921875 C 19.703125 14.816406 19.726562 14.902344 19.5 14.585938 C 19.132812 14.066406 15.355469 10.203125 15.355469 10.351562 C 15.355469 10.484375 16.953125 12.589844 17.894531 13.703125 C 18.417969 14.332031 19.285156 15.675781 19.285156 15.871094 C 19.285156 16.074219 15.523438 14.5625 13.929688 13.726562 C 13.367188 13.425781 12.09375 12.589844 11.082031 11.863281 C 10.082031 11.125 9.226562 10.53125 9.191406 10.53125 C 9.144531 10.53125 9.558594 10.992188 10.117188 11.558594 C 10.679688 12.128906 11.09375 12.589844 11.058594 12.589844 C 11.011719 12.589844 10.355469 12.285156 9.59375 11.921875 C 8.832031 11.558594 8.214844 11.320312 8.214844 11.367188 C 8.214844 11.585938 9.855469 12.746094 10.820312 13.207031 C 12.40625 13.980469 15.476562 15.289062 17.441406 16.039062 C 18.429688 16.402344 19.355469 16.777344 19.511719 16.863281 C 19.773438 16.996094 20.523438 17.902344 20.441406 17.988281 C 20.429688 18.011719 19.820312 17.734375 19.105469 17.371094 C 17.90625 16.742188 17.761719 16.707031 16.953125 16.707031 C 15.511719 16.707031 14.964844 16.523438 14.25 15.832031 C 13.546875 15.15625 12.929688 14.707031 12.5 14.585938 C 12.273438 14.515625 12.367188 14.660156 12.917969 15.191406 L 13.632812 15.894531 L 13.035156 16.003906 C 11.808594 16.222656 11.796875 16.246094 12.761719 16.402344 C 13.34375 16.5 13.820312 16.667969 14.070312 16.839844 C 14.40625 17.082031 14.691406 17.140625 16.132812 17.25 C 17.738281 17.371094 17.855469 17.40625 18.820312 17.878906 C 20.179688 18.53125 20.75 19.089844 21 20.035156 C 21.105469 20.433594 21.523438 21.789062 21.917969 23.035156 C 22.308594 24.28125 22.617188 25.359375 22.59375 25.433594 C 22.511719 25.675781 19.132812 22.878906 17.929688 21.597656 C 16.867188 20.445312 16.644531 20.265625 15.582031 19.71875 C 14.941406 19.394531 14.132812 18.945312 13.785156 18.714844 C 12.964844 18.183594 11.65625 17.515625 11.582031 17.601562 C 11.546875 17.625 11.84375 17.890625 12.226562 18.183594 C 12.617188 18.472656 13.203125 18.945312 13.535156 19.246094 L 14.144531 19.804688 L 13.796875 19.996094 C 13.558594 20.144531 13.417969 20.375 13.285156 20.832031 C 12.941406 21.996094 13.011719 22.066406 14.15625 21.71875 C 14.964844 21.476562 15.285156 21.160156 15.191406 20.675781 L 15.117188 20.324219 L 16.09375 20.84375 C 16.84375 21.246094 17.226562 21.546875 17.703125 22.128906 C 18.046875 22.539062 18.332031 22.941406 18.332031 23.023438 C 18.332031 23.253906 16.144531 23.035156 15.191406 22.699219 C 14.738281 22.539062 14.332031 22.417969 14.308594 22.457031 C 14.238281 22.515625 15.179688 23.097656 15.882812 23.4375 C 16.382812 23.679688 16.679688 23.726562 17.605469 23.726562 L 18.726562 23.726562 L 19.476562 24.550781 C 19.976562 25.09375 20.523438 25.542969 21.082031 25.84375 C 21.546875 26.109375 22.035156 26.449219 22.15625 26.621094 C 22.367188 26.898438 22.464844 27.359375 22.296875 27.359375 C 22.105469 27.359375 20.394531 26.316406 19.296875 25.53125 L 18.082031 24.671875 L 16.632812 24.429688 C 14.09375 24.027344 12.808594 23.542969 12.34375 22.792969 C 12 22.25 9.238281 19.609375 9 19.609375 C 8.773438 19.609375 9.429688 20.519531 10.332031 21.449219 C 10.894531 22.03125 11.320312 22.539062 11.285156 22.578125 C 11.203125 22.660156 9.617188 22.296875 7.667969 21.730469 C 6.773438 21.460938 5.976562 21.304688 5.546875 21.304688 C 4.59375 21.304688 4.726562 21.535156 5.84375 21.824219 C 6.855469 22.078125 6.976562 22.164062 6.808594 22.46875 C 6.75 22.601562 6.667969 22.855469 6.617188 23.058594 L 6.535156 23.421875 L 6.988281 22.964844 C 7.25 22.722656 7.570312 22.515625 7.726562 22.515625 C 7.953125 22.515625 11.203125 23.53125 11.464844 23.691406 C 11.523438 23.726562 11.40625 23.847656 11.203125 23.980469 C 10.820312 24.210938 10.394531 24.78125 10.511719 24.886719 C 10.546875 24.925781 10.84375 24.816406 11.179688 24.632812 C 11.894531 24.234375 12.367188 24.257812 13.726562 24.765625 C 14.394531 25.023438 14.832031 25.105469 15.703125 25.128906 L 16.808594 25.15625 L 18.617188 26.402344 C 21.738281 28.554688 22.582031 29.234375 22.726562 29.683594 C 22.882812 30.167969 23.214844 32.25 23.214844 32.71875 C 23.214844 33.035156 23.167969 33.011719 22 32.066406 C 20.261719 30.664062 19.726562 30.324219 18.511719 29.886719 C 17.929688 29.683594 17.273438 29.378906 17.058594 29.222656 C 16.59375 28.871094 16.382812 28.167969 16.453125 27.332031 C 16.535156 26.484375 16.367188 26.621094 16.167969 27.5625 L 16 28.375 L 15.320312 27.394531 C 14.523438 26.246094 14.261719 26.050781 12.75 25.542969 C 11.679688 25.179688 11.570312 25.167969 10.417969 25.238281 C 9.453125 25.3125 9.132812 25.289062 8.855469 25.144531 C 7.941406 24.671875 7.667969 24.816406 8.417969 25.382812 C 8.84375 25.710938 8.894531 25.722656 10.34375 25.722656 C 11.820312 25.722656 11.855469 25.734375 12.679688 26.148438 L 13.511719 26.570312 L 11.84375 26.632812 C 10.332031 26.691406 9.644531 26.824219 9.644531 27.078125 C 9.644531 27.117188 10.035156 27.105469 10.511719 27.066406 L 11.367188 26.984375 L 10.84375 27.527344 C 10.546875 27.828125 10.34375 28.109375 10.382812 28.15625 C 10.429688 28.191406 10.808594 27.976562 11.226562 27.671875 L 12 27.117188 L 14.023438 27.117188 L 14.691406 27.855469 C 15.417969 28.652344 15.464844 28.894531 14.964844 29.332031 C 14.523438 29.71875 13.453125 29.488281 12.296875 28.75 C 11.988281 28.554688 11.785156 28.496094 11.785156 28.582031 C 11.785156 28.824219 12.738281 29.632812 13.203125 29.804688 C 13.59375 29.9375 15.332031 29.996094 16.070312 29.910156 C 16.453125 29.863281 17.855469 30.371094 19.285156 31.085938 C 20.070312 31.472656 20.582031 31.824219 21.011719 32.273438 C 21.332031 32.625 21.785156 32.988281 22 33.109375 C 22.214844 33.21875 22.605469 33.496094 22.855469 33.726562 C 23.214844 34.0625 23.332031 34.269531 23.40625 34.695312 C 23.441406 34.996094 23.453125 35.261719 23.417969 35.300781 C 23.382812 35.335938 22.226562 34.898438 20.84375 34.332031 C 19.464844 33.761719 17.203125 32.902344 15.808594 32.429688 C 12.964844 31.460938 13.011719 31.484375 10.488281 30.03125 C 8.894531 29.125 8.59375 28.90625 8.191406 28.351562 C 7.691406 27.671875 7.320312 27.441406 6.441406 27.296875 C 5.785156 27.1875 5.867188 27.40625 6.558594 27.625 C 6.894531 27.722656 7.214844 27.964844 7.570312 28.375 C 7.855469 28.714844 8.058594 29.003906 8 29.027344 C 7.953125 29.039062 7.523438 28.945312 7.046875 28.808594 C 6.570312 28.675781 5.832031 28.472656 5.394531 28.339844 C 4.558594 28.109375 2.976562 27.925781 2.976562 28.070312 C 2.976562 28.109375 3.441406 28.277344 4.023438 28.433594 C 4.59375 28.605469 5.25 28.785156 5.476562 28.847656 L 5.894531 28.96875 L 5.296875 29.113281 C 4.679688 29.28125 3.332031 29.996094 3.332031 30.167969 C 3.332031 30.214844 3.75 30.09375 4.261719 29.910156 C 4.773438 29.71875 5.441406 29.523438 5.726562 29.476562 C 6.296875 29.390625 8.132812 29.597656 8.476562 29.792969 C 8.726562 29.925781 8.761719 30.140625 8.535156 30.140625 C 8.441406 30.140625 8.117188 30.3125 7.820312 30.515625 C 7.355469 30.832031 7.191406 30.878906 6.808594 30.808594 C 5.988281 30.675781 5.476562 31.375 5.476562 32.660156 C 5.476562 33.15625 5.488281 33.167969 5.808594 33.097656 C 6.394531 32.949219 7.273438 32.40625 7.453125 32.066406 C 7.546875 31.875 7.582031 31.582031 7.546875 31.375 C 7.488281 31.050781 7.523438 31.015625 8.058594 30.773438 C 9.070312 30.335938 9.382812 30.335938 10.238281 30.746094 C 10.667969 30.953125 11.273438 31.292969 11.59375 31.496094 L 12.167969 31.886719 L 11.535156 32.210938 C 11.179688 32.382812 10.65625 32.574219 10.367188 32.625 C 10.070312 32.671875 9.296875 32.949219 8.644531 33.230469 C 7.773438 33.605469 7.191406 33.773438 6.558594 33.847656 C 5.773438 33.917969 5.703125 33.941406 5.894531 34.089844 C 6.296875 34.390625 7.167969 34.292969 8.953125 33.726562 L 9.5 33.542969 L 9.214844 34.171875 C 9.058594 34.523438 8.929688 34.960938 8.929688 35.152344 C 8.929688 35.480469 8.964844 35.457031 9.441406 34.730469 C 10.320312 33.386719 12.035156 32.199219 13.070312 32.199219 C 13.773438 32.199219 15.011719 32.636719 17.308594 33.699219 C 18.355469 34.183594 19.523438 34.679688 19.882812 34.800781 C 20.238281 34.910156 21.214844 35.285156 22.046875 35.613281 L 23.558594 36.207031 L 23.703125 36.921875 C 23.773438 37.320312 23.832031 37.683594 23.820312 37.730469 C 23.785156 37.914062 23.273438 37.746094 21.84375 37.101562 C 20.476562 36.472656 19.855469 36.28125 18.90625 36.144531 C 18.417969 36.085938 18.203125 36.242188 18.535156 36.414062 C 18.65625 36.472656 19.144531 36.59375 19.632812 36.679688 L 20.511719 36.824219 L 20.132812 36.992188 C 19.917969 37.078125 19.773438 37.210938 19.808594 37.261719 C 19.84375 37.320312 20.285156 37.40625 20.773438 37.429688 C 21.273438 37.464844 21.738281 37.5625 21.820312 37.648438 C 22.070312 37.914062 20.441406 37.660156 19.046875 37.222656 C 16.65625 36.472656 16.132812 36.171875 15.570312 35.25 C 15.441406 35.042969 15.285156 34.863281 15.226562 34.863281 C 15.046875 34.863281 15.214844 35.324219 15.605469 35.964844 C 16.011719 36.605469 16.65625 37.003906 17.941406 37.394531 C 18.417969 37.539062 18.832031 37.707031 18.867188 37.769531 C 18.988281 37.960938 16.453125 37.914062 15.761719 37.71875 C 14.855469 37.453125 14.117188 37.355469 14.214844 37.515625 C 14.261719 37.585938 14.394531 37.648438 14.5 37.648438 C 14.605469 37.648438 14.941406 37.816406 15.238281 38.011719 C 15.773438 38.375 15.773438 38.375 17.558594 38.375 L 19.34375 38.386719 L 18.867188 38.640625 C 18.355469 38.90625 17.738281 39.4375 17.738281 39.621094 C 17.738281 39.679688 17.976562 39.585938 18.261719 39.414062 C 18.546875 39.246094 19.203125 38.96875 19.714844 38.785156 C 20.605469 38.484375 20.738281 38.46875 22.203125 38.542969 C 23.046875 38.578125 23.796875 38.675781 23.855469 38.738281 C 23.976562 38.859375 24.191406 40.335938 24.105469 40.417969 C 24.082031 40.445312 23.453125 40.371094 22.714844 40.261719 C 21.976562 40.164062 20.59375 40.042969 19.644531 39.996094 C 16.867188 39.886719 15.894531 39.621094 14.582031 38.617188 C 14.261719 38.363281 13.855469 38.121094 13.691406 38.070312 C 13.523438 38.023438 12.726562 37.660156 11.90625 37.285156 C 10.308594 36.535156 9.882812 36.375 9.882812 36.507812 C 9.882812 36.765625 11.464844 37.746094 12.511719 38.132812 C 13.09375 38.347656 13.761719 38.699219 14.105469 38.980469 C 15.320312 39.960938 16.082031 40.308594 17.023438 40.308594 C 17.535156 40.308594 18.214844 40.527344 18.214844 40.6875 C 18.214844 40.746094 18.09375 40.769531 17.953125 40.734375 C 17.796875 40.699219 17.273438 40.601562 16.785156 40.492188 C 16.296875 40.394531 14.929688 40.054688 13.761719 39.742188 C 11.75 39.195312 11.617188 39.136719 11.40625 38.773438 C 11.191406 38.410156 9.90625 37.34375 8.867188 36.667969 C 8.605469 36.484375 7.941406 35.964844 7.394531 35.480469 C 6.226562 34.488281 5.582031 34.136719 4.929688 34.136719 L 4.464844 34.148438 L 4.820312 34.34375 C 5.832031 34.875 7.261719 35.890625 7.261719 36.0625 C 7.261719 36.109375 6.953125 36.132812 6.570312 36.109375 C 5.953125 36.0625 5.917969 36.074219 6.105469 36.242188 C 6.226562 36.339844 6.691406 36.484375 7.132812 36.558594 C 7.84375 36.679688 8.070312 36.800781 9.179688 37.597656 C 11.082031 38.992188 11.132812 39.089844 9.761719 38.796875 C 9.023438 38.640625 8.808594 38.53125 8.332031 38.082031 C 7.917969 37.695312 7.546875 37.476562 6.808594 37.234375 C 6.023438 36.96875 5.761719 36.8125 5.511719 36.484375 C 5.308594 36.207031 4.894531 35.917969 4.296875 35.636719 C 3.796875 35.394531 3.203125 35.105469 2.976562 34.984375 C 2.34375 34.644531 1.773438 34.574219 1.488281 34.789062 C 1.261719 34.972656 1.261719 34.972656 1.644531 34.984375 C 1.855469 34.984375 2.15625 35.042969 2.285156 35.117188 C 2.511719 35.238281 2.511719 35.261719 2.15625 35.480469 C 1.785156 35.710938 1.570312 36.023438 1.703125 36.144531 C 1.726562 36.183594 1.964844 36.074219 2.203125 35.890625 C 2.453125 35.722656 2.785156 35.589844 2.941406 35.589844 C 3.355469 35.589844 4.761719 36.351562 5.179688 36.800781 C 5.570312 37.234375 5.355469 37.164062 4.644531 36.617188 C 4.144531 36.242188 3.25 35.953125 2.820312 36.039062 C 2.285156 36.144531 2.34375 36.28125 2.953125 36.363281 C 3.367188 36.414062 3.832031 36.644531 4.703125 37.210938 C 5.355469 37.636719 6.023438 38.105469 6.191406 38.265625 L 6.488281 38.554688 L 6.105469 38.589844 C 5.894531 38.617188 5.132812 38.542969 4.417969 38.445312 C 3.417969 38.300781 2.964844 38.179688 2.476562 37.902344 C 2.132812 37.707031 1.691406 37.539062 1.488281 37.527344 C 0.738281 37.476562 0.679688 37.550781 1.273438 37.757812 C 1.617188 37.878906 1.988281 38.046875 2.09375 38.144531 C 2.273438 38.300781 2.238281 38.324219 1.726562 38.398438 C 0.90625 38.519531 0.75 38.738281 1.5 38.738281 L 2.082031 38.738281 L 1.726562 38.929688 C 1.320312 39.136719 1 39.425781 1.082031 39.511719 C 1.105469 39.535156 1.476562 39.402344 1.90625 39.195312 C 2.453125 38.941406 2.855469 38.847656 3.273438 38.847656 C 4.476562 38.859375 9.011719 39.34375 9.558594 39.511719 C 9.882812 39.621094 10.75 39.789062 11.5 39.886719 C 12.238281 39.996094 13.296875 40.214844 13.832031 40.382812 C 16.382812 41.171875 16.882812 41.277344 18.796875 41.460938 C 21.785156 41.75 24.691406 42.550781 25.367188 43.289062 C 25.617188 43.566406 25.65625 43.734375 25.691406 44.742188 L 25.738281 45.878906 L 27.5 45.878906 L 27.5 44.367188 C 27.5 43.058594 27.523438 42.851562 27.714844 42.753906 C 28.117188 42.527344 32.296875 42.003906 33.691406 42.003906 C 34.179688 42.003906 34.882812 41.96875 35.238281 41.921875 C 35.882812 41.835938 35.882812 41.824219 35.476562 41.75 C 35.214844 41.691406 35.382812 41.679688 35.953125 41.703125 C 36.441406 41.726562 37.65625 41.933594 38.632812 42.175781 C 40.558594 42.648438 40.714844 42.671875 40.714844 42.5 C 40.714844 42.296875 39.882812 41.992188 38.882812 41.824219 C 38.332031 41.738281 37.738281 41.582031 37.546875 41.472656 C 37.214844 41.277344 37.273438 41.277344 38.832031 41.304688 C 39.738281 41.328125 40.429688 41.316406 40.382812 41.265625 C 40.332031 41.230469 39.90625 41.121094 39.417969 41.035156 C 38.417969 40.867188 38.476562 40.734375 39.582031 40.613281 C 40.429688 40.527344 41.394531 40.734375 44.082031 41.59375 C 44.191406 41.628906 44.285156 41.605469 44.285156 41.53125 C 44.285156 41.375 42.714844 40.613281 42.167969 40.492188 C 41.953125 40.445312 41.796875 40.382812 41.820312 40.347656 C 41.855469 40.324219 42.785156 40.152344 43.894531 39.996094 C 45.644531 39.730469 46.144531 39.707031 47.917969 39.765625 L 49.941406 39.839844 L 49.464844 39.570312 C 48.84375 39.234375 48.855469 39.257812 49.105469 38.980469 C 49.441406 38.605469 49.238281 38.554688 48.429688 38.832031 C 48.011719 38.96875 46.605469 39.222656 45.296875 39.390625 C 43.988281 39.570312 41.738281 39.875 40.308594 40.070312 C 38.867188 40.261719 37.679688 40.40625 37.65625 40.382812 C 37.582031 40.308594 39.796875 39.378906 40.238281 39.292969 C 40.894531 39.160156 42.023438 38.710938 42.023438 38.589844 C 42.023438 38.53125 41.929688 38.507812 41.820312 38.542969 C 41.703125 38.578125 41.105469 38.664062 40.5 38.738281 C 39.65625 38.832031 39.023438 39.003906 37.855469 39.464844 C 36.132812 40.140625 35.535156 40.296875 34.738281 40.308594 C 34.285156 40.308594 34.191406 40.273438 34.238281 40.128906 C 34.332031 39.898438 34.082031 39.898438 33.691406 40.128906 C 33.523438 40.226562 33.261719 40.296875 33.09375 40.308594 C 32.929688 40.308594 33.582031 39.933594 34.632812 39.4375 C 35.632812 38.953125 36.40625 38.542969 36.34375 38.53125 C 36.203125 38.484375 32.976562 39.644531 32.34375 39.972656 C 32.09375 40.09375 31.773438 40.191406 31.632812 40.164062 C 31.308594 40.117188 32.558594 39.34375 35.535156 37.730469 L 37.558594 36.644531 L 39.046875 36.777344 C 40.09375 36.871094 40.976562 37.042969 42.023438 37.355469 C 44.570312 38.105469 45.464844 38.253906 47.796875 38.3125 C 50.261719 38.386719 50.261719 38.265625 47.808594 37.949219 C 45.976562 37.71875 42.5 36.96875 42.5 36.8125 C 42.5 36.667969 46.035156 35.589844 46.5 35.589844 C 47.046875 35.589844 48.167969 35.953125 49.617188 36.605469 C 50.167969 36.859375 50.667969 37.042969 50.738281 37.019531 C 50.820312 36.980469 50.65625 36.738281 50.382812 36.460938 C 49.855469 35.929688 49 35.433594 48.367188 35.285156 C 48.15625 35.25 47.941406 35.152344 47.90625 35.082031 C 47.820312 34.949219 49.273438 34.996094 50.832031 35.179688 C 51.941406 35.3125 51.417969 35.117188 49.820312 34.789062 C 48.34375 34.5 48.273438 34.5 47.25 34.679688 C 46.667969 34.777344 46.167969 34.863281 46.132812 34.863281 C 46.105469 34.863281 46.273438 34.535156 46.5 34.125 C 46.738281 33.726562 46.894531 33.363281 46.855469 33.324219 C 46.820312 33.277344 46.582031 33.484375 46.34375 33.785156 C 45.464844 34.839844 45.191406 35.03125 43.679688 35.636719 C 41.988281 36.328125 41.34375 36.414062 39.808594 36.195312 C 38.464844 36 38.714844 35.84375 40.40625 35.796875 C 41.09375 35.78125 41.667969 35.734375 41.667969 35.675781 C 41.667969 35.625 41.511719 35.589844 41.320312 35.589844 C 40.644531 35.589844 40.832031 35.371094 41.785156 35.042969 C 42.308594 34.863281 42.738281 34.695312 42.738281 34.65625 C 42.738281 34.621094 42.511719 34.621094 42.238281 34.667969 L 41.726562 34.753906 L 42.667969 33.785156 C 43.191406 33.253906 43.582031 32.769531 43.535156 32.734375 C 43.488281 32.683594 43.296875 32.78125 43.117188 32.949219 C 42.488281 33.542969 41.296875 34.390625 40.808594 34.621094 C 40.523438 34.742188 39.820312 34.910156 39.226562 34.984375 C 38.320312 35.105469 38.070312 35.203125 37.582031 35.542969 L 37.011719 35.953125 L 35.023438 35.929688 L 33.035156 35.890625 L 33.605469 35.613281 C 33.941406 35.457031 34.214844 35.238281 34.25 35.105469 C 34.332031 34.789062 37.058594 33.253906 38.035156 32.988281 C 38.738281 32.78125 40.15625 32.066406 40.296875 31.835938 C 40.40625 31.65625 40.296875 31.691406 39.855469 31.945312 C 39.523438 32.152344 37.535156 32.515625 37.429688 32.40625 C 37.40625 32.382812 37.667969 32.089844 38.011719 31.738281 C 38.546875 31.207031 38.820312 31.050781 39.941406 30.625 C 40.667969 30.347656 41.332031 30.09375 41.429688 30.058594 C 41.882812 29.886719 41.238281 29.898438 40.273438 30.082031 C 38.84375 30.347656 38.40625 30.578125 37.441406 31.546875 C 36.988281 32.007812 36.429688 32.515625 36.203125 32.671875 C 35.832031 32.949219 35.808594 32.949219 35.941406 32.707031 C 36.09375 32.417969 36.117188 31.0625 35.964844 31.160156 C 35.90625 31.195312 35.820312 31.414062 35.785156 31.632812 C 35.703125 32.089844 34.738281 33.578125 34.070312 34.304688 C 33.820312 34.558594 33.367188 34.898438 33.035156 35.042969 C 32.714844 35.203125 32.105469 35.515625 31.691406 35.757812 C 30.941406 36.195312 28.382812 36.980469 28 36.882812 C 27.855469 36.859375 28.273438 36.351562 29.511719 35.070312 C 30.976562 33.554688 31.546875 33.070312 33.40625 31.753906 C 34.605469 30.90625 36 29.960938 36.511719 29.65625 L 37.429688 29.113281 L 39.394531 29.125 C 40.953125 29.125 41.476562 29.171875 41.894531 29.332031 C 42.535156 29.585938 42.535156 29.585938 42.394531 29.308594 C 42.117188 28.796875 41.667969 28.652344 40.179688 28.582031 L 38.75 28.507812 L 40.261719 27.734375 L 41.773438 26.96875 L 42.953125 27.273438 C 43.59375 27.441406 44.355469 27.683594 44.644531 27.828125 C 44.929688 27.964844 45.179688 28.058594 45.203125 28.046875 C 45.296875 27.949219 44.882812 27.574219 44.238281 27.1875 C 43.679688 26.835938 43.582031 26.742188 43.761719 26.691406 C 44.394531 26.484375 46.179688 25.746094 46.546875 25.53125 L 46.964844 25.289062 L 46.367188 25.347656 C 46.046875 25.371094 45.476562 25.542969 45.117188 25.710938 C 44.65625 25.917969 44.035156 26.0625 42.976562 26.183594 C 41.773438 26.316406 41.25 26.449219 40.273438 26.835938 L 39.046875 27.332031 L 39.238281 27.007812 C 39.394531 26.726562 39.808594 26.558594 42.179688 25.761719 C 43.703125 25.238281 45.535156 24.707031 46.25 24.574219 C 48.5 24.136719 49.285156 23.945312 49.285156 23.835938 C 49.285156 23.691406 48.144531 23.703125 47.132812 23.859375 C 46.667969 23.933594 46.273438 23.96875 46.238281 23.945312 C 46.203125 23.894531 47.523438 22.746094 47.90625 22.492188 C 47.976562 22.441406 48 22.382812 47.964844 22.347656 C 47.929688 22.308594 47.296875 22.683594 46.570312 23.195312 C 45.667969 23.800781 45.058594 24.125 44.703125 24.199219 C 44.40625 24.257812 44.167969 24.28125 44.167969 24.246094 C 44.167969 24.222656 44.953125 23.300781 45.929688 22.199219 C 46.894531 21.097656 47.703125 20.144531 47.726562 20.058594 C 47.75 19.972656 47.394531 20.277344 46.953125 20.710938 C 44.785156 22.804688 43.394531 24.125 43.058594 24.378906 C 42.832031 24.550781 42.15625 24.816406 41.429688 25.007812 C 40.738281 25.179688 40.105469 25.359375 40.023438 25.398438 C 39.929688 25.433594 40.214844 24.863281 40.667969 24.136719 C 41.84375 22.1875 41.941406 22.03125 41.820312 22.03125 C 41.773438 22.042969 41.523438 22.335938 41.273438 22.710938 C 41.023438 23.074219 40.417969 23.882812 39.917969 24.511719 C 39.132812 25.519531 38.917969 25.710938 38.226562 26.039062 C 37.394531 26.449219 34.546875 27.601562 34.394531 27.601562 C 34.203125 27.601562 34.679688 26.5 34.929688 26.378906 C 35.441406 26.097656 37.382812 24.753906 37.382812 24.660156 C 37.382812 24.609375 37.226562 24.644531 37.035156 24.742188 C 36.84375 24.851562 36.332031 25.070312 35.894531 25.238281 L 35.09375 25.542969 L 35.167969 25.265625 C 35.203125 25.117188 35.261719 24.78125 35.296875 24.511719 C 35.34375 24.113281 35.308594 24.160156 35.082031 24.828125 C 34.832031 25.613281 34.808594 25.625 34.226562 25.832031 C 33.796875 25.988281 33.429688 26.257812 32.894531 26.824219 C 32.488281 27.25 32.09375 27.601562 32.035156 27.601562 C 31.964844 27.601562 31.726562 27.441406 31.511719 27.238281 C 30.832031 26.632812 30.761719 26.789062 31.320312 27.648438 C 31.523438 27.964844 31.667969 28.253906 31.617188 28.289062 C 31.5 28.410156 29.367188 29.308594 29.320312 29.246094 C 29.25 29.171875 30.117188 26.957031 30.523438 26.207031 C 31.761719 23.90625 31.570312 24.125 32.65625 23.785156 C 33.191406 23.605469 34.570312 23.300781 35.714844 23.109375 C 38.105469 22.699219 38.167969 22.671875 39.714844 21.160156 C 40.90625 19.996094 41.058594 19.621094 39.917969 20.699219 C 38.59375 21.921875 36.535156 22.757812 34.832031 22.757812 C 34.117188 22.757812 34.011719 22.671875 34.417969 22.417969 C 34.855469 22.128906 37.273438 20.070312 37.214844 20.011719 C 37.167969 19.960938 35.082031 21.207031 33.15625 22.441406 C 32.703125 22.734375 32.296875 22.953125 32.285156 22.941406 C 32.167969 22.832031 33.226562 21.050781 33.773438 20.457031 C 34.285156 19.890625 34.796875 19.539062 36.726562 18.460938 C 38.820312 17.285156 39.90625 16.488281 39.558594 16.378906 C 39.5 16.355469 38.644531 16.777344 37.667969 17.308594 C 36.070312 18.183594 35.214844 18.53125 35.058594 18.375 C 35.023438 18.339844 35.082031 18.085938 35.179688 17.78125 C 35.273438 17.492188 35.429688 16.742188 35.535156 16.113281 C 35.726562 14.878906 35.773438 14.792969 36.667969 14.453125 C 38.203125 13.859375 40.761719 12.40625 41.535156 11.695312 C 42.238281 11.039062 43.832031 9.175781 43.761719 9.101562 C 43.726562 9.066406 43.105469 9.625 42.394531 10.324219 C 40.976562 11.695312 40.273438 12.128906 37.046875 13.605469 L 35.617188 14.261719 L 35.738281 13.910156 C 35.882812 13.484375 36.488281 12.929688 37.65625 12.117188 C 38.535156 11.511719 38.773438 11.292969 38.65625 11.183594 C 38.632812 11.148438 38.011719 11.425781 37.308594 11.800781 C 36.59375 12.164062 36 12.46875 35.988281 12.46875 C 35.882812 12.46875 35.988281 11.898438 36.191406 11.378906 C 36.320312 11.039062 36.429688 10.566406 36.429688 10.324219 C 36.429688 9.976562 36.511719 9.816406 36.796875 9.574219 C 37.105469 9.308594 37.214844 9.054688 37.511719 7.878906 C 37.703125 7.117188 37.832031 6.476562 37.808594 6.453125 C 37.726562 6.355469 37.25 7.238281 37.023438 7.941406 C 36.894531 8.328125 36.691406 8.777344 36.582031 8.945312 L 36.382812 9.261719 L 36.296875 8.777344 C 36.214844 8.253906 36.320312 7.941406 37.09375 6.644531 C 37.320312 6.269531 37.5 5.917969 37.5 5.859375 C 37.5 5.675781 36.761719 6.476562 36.226562 7.238281 C 35.679688 8 35.679688 8.015625 35.75 8.789062 C 35.820312 9.550781 35.820312 9.5625 35.488281 9.746094 C 35.296875 9.839844 34.917969 9.949219 34.644531 10 L 34.144531 10.082031 L 34.441406 9.492188 C 34.605469 9.164062 34.867188 8.558594 35.046875 8.132812 C 35.34375 7.371094 36.285156 5.96875 36.796875 5.507812 C 37.273438 5.058594 38.34375 3.621094 38.296875 3.472656 C 38.273438 3.402344 38.15625 3.484375 38.035156 3.667969 C 37.917969 3.863281 37.523438 4.226562 37.15625 4.46875 C 36.464844 4.949219 35.5 5.929688 35.25 6.390625 C 35.09375 6.695312 34.882812 6.742188 34.882812 6.488281 C 34.882812 6.171875 34 3.8125 33.953125 4.019531 C 33.929688 4.128906 34.046875 4.914062 34.214844 5.773438 L 34.523438 7.324219 L 33.59375 9.503906 C 32.882812 11.199219 32.570312 11.789062 32.179688 12.203125 C 31.632812 12.796875 31.382812 12.808594 31.332031 12.273438 C 31.261719 11.535156 30.796875 9.34375 30.535156 8.535156 C 30.320312 7.832031 30.25 7.289062 30.179688 5.328125 C 30.132812 4.03125 30.070312 2.941406 30.046875 2.917969 C 29.894531 2.761719 29.832031 3.246094 29.773438 5.109375 L 29.703125 7.203125 L 29.082031 5.191406 C 28.738281 4.089844 28.34375 3.039062 28.203125 2.855469 C 27.917969 2.492188 27.761719 2.503906 27.964844 2.882812 C 28.035156 3.015625 28.355469 4.175781 28.691406 5.460938 C 29.167969 7.300781 29.394531 7.976562 29.75 8.59375 C 30.011719 9.03125 30.308594 9.757812 30.417969 10.203125 C 30.617188 11.078125 30.582031 11.390625 30.34375 10.847656 C 30.261719 10.664062 29.523438 9.960938 28.703125 9.285156 C 26.882812 7.773438 26.808594 7.722656 26.65625 7.773438 C 26.59375 7.796875 26.808594 8.015625 27.132812 8.269531 C 27.785156 8.753906 29.320312 10.566406 29.808594 11.402344 C 30.15625 12.007812 31 14.234375 31.320312 15.375 C 31.617188 16.476562 31.632812 19.246094 31.320312 19.246094 C 31.273438 19.246094 31.058594 18.882812 30.84375 18.425781 C 29.867188 16.414062 29.058594 15.496094 28.273438 15.496094 C 27.976562 15.496094 27.882812 15.421875 27.761719 15.105469 C 27.632812 14.746094 27.644531 14.707031 28.226562 14.078125 C 28.988281 13.253906 29.40625 12.371094 29.40625 11.523438 C 29.40625 11.039062 29.355469 10.894531 29.226562 10.894531 C 29.132812 10.894531 29.046875 11.003906 29.046875 11.136719 C 29.046875 11.441406 28.570312 12.394531 28.191406 12.867188 L 27.917969 13.207031 L 27.917969 11.414062 C 27.90625 9.464844 27.820312 9.117188 27.191406 8.605469 C 26.679688 8.195312 26.65625 8.304688 27.105469 9.164062 C 27.5 9.9375 27.523438 10.035156 27.453125 10.773438 C 27.285156 12.46875 27.105469 13.679688 27.023438 13.679688 C 26.964844 13.679688 26.785156 13.425781 26.605469 13.121094 C 26.429688 12.808594 26 12.226562 25.667969 11.816406 C 24.320312 10.191406 24.144531 9.902344 24.226562 9.441406 C 24.34375 8.8125 24.558594 8.546875 25.273438 8.132812 C 25.75 7.867188 26.046875 7.566406 26.441406 6.972656 C 26.773438 6.464844 27.023438 6.199219 27.132812 6.246094 C 27.738281 6.464844 27.558594 4.089844 26.917969 3.351562 C 26.617188 3.027344 26.511719 2.988281 25.882812 2.976562 C 25.082031 2.964844 25.167969 3.085938 24.820312 1.429688 C 24.714844 0.90625 24.582031 0.460938 24.546875 0.4375 C 24.5 0.410156 24.476562 1.199219 24.5 2.179688 Z M 26.285156 5.847656 L 26.785156 6.136719 L 26.523438 6.476562 C 26.179688 6.925781 25.261719 7.503906 24.90625 7.503906 C 24.65625 7.503906 24.617188 7.457031 24.679688 7.167969 C 24.714844 6.984375 24.808594 6.390625 24.894531 5.847656 L 25.046875 4.84375 L 25.417969 5.191406 C 25.605469 5.398438 26 5.675781 26.285156 5.847656 Z M 19.867188 10.894531 C 21.167969 11.667969 21.367188 11.839844 21.558594 12.285156 C 21.679688 12.566406 22.023438 14.285156 22.320312 16.113281 C 22.617188 17.941406 22.953125 19.753906 23.046875 20.15625 C 23.367188 21.414062 24.058594 23.59375 24.417969 24.453125 C 24.785156 25.335938 24.976562 26.269531 24.796875 26.269531 C 24.5 26.269531 23.546875 25.503906 23.394531 25.144531 C 23.167969 24.574219 21.488281 18.328125 21.144531 16.742188 C 20.808594 15.242188 20.355469 13.789062 19.941406 12.953125 C 19.582031 12.238281 18.667969 10.992188 17.964844 10.265625 L 17.417969 9.707031 L 17.90625 9.855469 C 18.179688 9.9375 19.058594 10.410156 19.867188 10.894531 Z M 35.355469 11.332031 C 34.855469 12.324219 34.667969 13.253906 34.464844 15.652344 C 34.394531 16.535156 34.34375 16.65625 33.59375 17.902344 C 32.308594 20.035156 32.355469 20.011719 32.464844 18.582031 C 32.511719 17.914062 32.535156 16.546875 32.523438 15.542969 L 32.476562 13.714844 L 33.15625 12.25 L 33.84375 10.785156 L 34.394531 10.714844 C 34.691406 10.664062 35.132812 10.566406 35.355469 10.484375 C 35.582031 10.398438 35.785156 10.339844 35.808594 10.363281 C 35.832031 10.375 35.632812 10.808594 35.355469 11.332031 Z M 24.976562 12.382812 C 25.867188 13.679688 26.417969 14.636719 26.59375 15.214844 C 26.667969 15.457031 26.617188 15.484375 26.105469 15.566406 L 25.535156 15.664062 L 26.15625 15.773438 C 26.75 15.871094 26.785156 15.894531 26.894531 16.316406 C 27.308594 17.976562 27.5 19.863281 27.355469 21.0625 C 27.179688 22.671875 26.214844 25.625 25.964844 25.347656 C 25.90625 25.289062 25.605469 24.308594 25.296875 23.179688 C 24.988281 22.042969 24.59375 20.734375 24.40625 20.265625 C 24.035156 19.320312 23.796875 18.183594 23.523438 16.160156 C 23.167969 13.523438 23.167969 13.667969 23.523438 12.238281 C 23.703125 11.511719 23.894531 10.929688 23.941406 10.96875 C 23.988281 10.992188 24.453125 11.632812 24.976562 12.382812 Z M 28.453125 16.34375 C 28.691406 16.476562 30.761719 19.550781 30.894531 19.972656 C 30.941406 20.132812 30.832031 20.457031 30.59375 20.90625 C 30.09375 21.863281 28.179688 24.539062 28.117188 24.355469 C 28.09375 24.28125 28.191406 23.195312 28.34375 21.945312 C 28.617188 19.515625 28.605469 18.304688 28.273438 17.070312 C 28.023438 16.136719 28.035156 16.113281 28.453125 16.34375 Z M 38.441406 27.308594 C 38.226562 27.539062 37.605469 27.949219 37.082031 28.207031 C 36.558594 28.460938 35.394531 29.136719 34.5 29.695312 C 32.894531 30.699219 32.855469 30.722656 32.855469 30.410156 C 32.855469 30.226562 33.09375 29.730469 33.417969 29.257812 L 33.976562 28.433594 L 36.296875 27.660156 C 37.582031 27.238281 38.679688 26.886719 38.738281 26.886719 C 38.808594 26.875 38.667969 27.066406 38.441406 27.308594 Z M 24.453125 28.023438 L 25.238281 28.628906 L 25.179688 29.210938 C 25.070312 30.152344 25 30.226562 24.714844 29.65625 C 24.558594 29.34375 24.285156 29.066406 23.988281 28.894531 C 23.726562 28.738281 23.464844 28.484375 23.40625 28.3125 C 23.285156 27.976562 23.394531 27.320312 23.558594 27.382812 C 23.605469 27.40625 24.011719 27.683594 24.453125 28.023438 Z M 32.976562 28.882812 C 32.976562 28.917969 32.761719 29.414062 32.5 29.984375 C 32.09375 30.878906 31.894531 31.132812 30.867188 32.128906 C 30.226562 32.746094 29.464844 33.457031 29.167969 33.726562 L 28.644531 34.199219 L 28.894531 33.773438 C 30.15625 31.644531 30.476562 31.0625 30.453125 30.976562 C 30.429688 30.929688 29.808594 31.65625 29.058594 32.574219 C 28.320312 33.507812 27.679688 34.246094 27.644531 34.210938 C 27.617188 34.171875 27.726562 33.6875 27.90625 33.121094 C 28.226562 32.042969 29.191406 30.410156 29.691406 30.082031 C 29.941406 29.910156 32.679688 28.835938 32.894531 28.824219 C 32.941406 28.808594 32.976562 28.847656 32.976562 28.882812 Z M 34.785156 37.234375 C 34.179688 37.527344 32.917969 38.289062 31.976562 38.917969 C 30.726562 39.777344 29.941406 40.203125 29.035156 40.550781 C 28.355469 40.820312 27.761719 41.035156 27.726562 41.035156 C 27.59375 41.035156 27.488281 38.507812 27.617188 38.265625 C 27.75 38.011719 28.082031 37.914062 31.667969 37.164062 C 33.238281 36.824219 34.15625 36.691406 34.882812 36.691406 L 35.894531 36.703125 Z M 21.429688 40.671875 C 22.25 40.808594 23.15625 40.914062 23.453125 40.914062 C 24.070312 40.914062 24.226562 41 24.308594 41.363281 C 24.417969 41.789062 24.226562 41.8125 23.285156 41.472656 C 22.558594 41.21875 20.632812 40.941406 19.40625 40.914062 C 19.308594 40.914062 19.09375 40.808594 18.929688 40.671875 L 18.632812 40.429688 L 19.285156 40.429688 C 19.644531 40.429688 20.605469 40.539062 21.429688 40.671875 Z M 21.429688 40.671875 "/>
<path style=" stroke:none;fill-rule:nonzero;fill:rgb(74.509804%,44.705882%,19.607843%);fill-opacity:1;" d="M 24.882812 17.539062 C 24.882812 17.601562 24.953125 17.671875 25.023438 17.699219 C 25.117188 17.734375 25.167969 17.929688 25.144531 18.195312 C 25.09375 18.714844 25.441406 19.125 26.144531 19.34375 L 26.570312 19.476562 L 26.523438 18.703125 C 26.464844 17.6875 26.25 17.429688 25.453125 17.429688 C 25.144531 17.429688 24.882812 17.480469 24.882812 17.539062 Z M 24.882812 17.539062 "/>
<path style=" stroke:none;fill-rule:nonzero;fill:rgb(74.509804%,44.705882%,19.607843%);fill-opacity:1;" d="M 10 15.253906 C 9.90625 15.3125 9.5 15.335938 9.105469 15.300781 C 8.441406 15.226562 8.367188 15.253906 8.070312 15.578125 C 7.703125 15.96875 7.382812 17.070312 7.382812 17.941406 C 7.382812 18.570312 7.382812 18.570312 7.917969 18.410156 C 8.285156 18.316406 9.820312 17.191406 10.082031 16.839844 C 10.261719 16.597656 10.273438 16.160156 10.117188 15.859375 C 10.023438 15.675781 10.046875 15.605469 10.238281 15.496094 C 10.5 15.347656 10.558594 15.132812 10.332031 15.132812 C 10.25 15.132812 10.09375 15.191406 10 15.253906 Z M 10 15.253906 "/>
<path style=" stroke:none;fill-rule:nonzero;fill:rgb(74.509804%,44.705882%,19.607843%);fill-opacity:1;" d="M 40.117188 15.882812 C 40.117188 15.929688 40.179688 15.980469 40.238281 15.980469 C 40.308594 15.980469 40.332031 16.101562 40.285156 16.269531 C 40.179688 16.707031 40.523438 17.261719 41.105469 17.613281 C 42.046875 18.171875 42.261719 17.988281 41.976562 16.886719 C 41.726562 15.917969 41.546875 15.75 40.761719 15.773438 C 40.40625 15.785156 40.117188 15.832031 40.117188 15.882812 Z M 40.117188 15.882812 "/>
<path style=" stroke:none;fill-rule:nonzero;fill:rgb(74.509804%,44.705882%,19.607843%);fill-opacity:1;" d="M 46.785156 29.234375 C 46.785156 29.34375 46.867188 29.453125 46.964844 29.488281 C 47.09375 29.550781 47.105469 29.621094 47.023438 29.777344 C 46.785156 30.226562 46.882812 30.84375 47.273438 31.28125 C 47.632812 31.703125 48.558594 32.234375 49.203125 32.394531 C 49.523438 32.464844 49.523438 32.464844 49.523438 31.859375 C 49.523438 30.785156 49.296875 30.007812 48.855469 29.5625 C 48.476562 29.171875 48.417969 29.148438 47.867188 29.234375 C 47.511719 29.28125 47.191406 29.257812 47.035156 29.171875 C 46.832031 29.066406 46.785156 29.078125 46.785156 29.234375 Z M 46.785156 29.234375 "/>
<path style=" stroke:none;fill-rule:nonzero;fill:rgb(74.509804%,44.705882%,19.607843%);fill-opacity:1;" d="M 17.144531 30.675781 C 17.144531 30.832031 17.058594 31.027344 16.964844 31.109375 C 16.632812 31.390625 16.75 31.898438 17.25 32.355469 C 17.511719 32.597656 17.894531 32.878906 18.082031 32.988281 L 18.453125 33.179688 L 18.453125 32.503906 C 18.453125 31.605469 18.203125 31.015625 17.738281 30.832031 C 17.546875 30.757812 17.382812 30.625 17.382812 30.542969 C 17.382812 30.457031 17.332031 30.382812 17.261719 30.382812 C 17.203125 30.382812 17.144531 30.515625 17.144531 30.675781 Z M 17.144531 30.675781 "/>
<path style=" stroke:none;fill-rule:nonzero;fill:rgb(74.509804%,44.705882%,19.607843%);fill-opacity:1;" d="M 4.296875 42.101562 C 3.796875 42.648438 3.5 43.179688 3.617188 43.300781 C 3.667969 43.359375 4.132812 43.398438 4.644531 43.398438 C 5.703125 43.398438 6.070312 43.191406 6.070312 42.585938 C 6.070312 42.394531 6.132812 42.125 6.203125 41.980469 C 6.355469 41.691406 6.261719 41.558594 6.023438 41.75 C 5.90625 41.847656 5.832031 41.859375 5.773438 41.761719 C 5.738281 41.703125 5.476562 41.640625 5.214844 41.640625 C 4.796875 41.640625 4.65625 41.714844 4.296875 42.101562 Z M 4.296875 42.101562 "/>
<path style=" stroke:none;fill-rule:nonzero;fill:rgb(74.509804%,44.705882%,19.607843%);fill-opacity:1;" d="M 48.808594 42.476562 C 48.808594 42.597656 48.703125 42.730469 48.570312 42.769531 C 48.105469 42.890625 48.035156 43.675781 48.441406 44.378906 C 48.761719 44.957031 48.773438 44.972656 49.09375 44.597656 C 49.261719 44.402344 49.464844 44.039062 49.535156 43.796875 C 49.65625 43.421875 49.644531 43.300781 49.476562 43.035156 C 49.367188 42.863281 49.226562 42.730469 49.167969 42.730469 C 49.09375 42.730469 49.046875 42.621094 49.046875 42.488281 C 49.046875 42.355469 49 42.246094 48.929688 42.246094 C 48.867188 42.246094 48.808594 42.34375 48.808594 42.476562 Z M 48.808594 42.476562 "/>
<path style=" stroke:none;fill-rule:nonzero;fill:rgb(74.509804%,44.705882%,19.607843%);fill-opacity:1;" d="M 14.761719 43.785156 C 14.667969 43.820312 14.488281 43.941406 14.355469 44.050781 C 14.105469 44.269531 13.570312 45.296875 13.570312 45.550781 C 13.570312 45.941406 15.441406 45.878906 15.679688 45.480469 C 15.726562 45.40625 15.796875 45.128906 15.84375 44.851562 C 15.894531 44.582031 15.964844 44.246094 16.011719 44.097656 C 16.082031 43.855469 16.058594 43.832031 15.761719 43.84375 C 15.570312 43.855469 15.308594 43.832031 15.179688 43.796875 C 15.046875 43.761719 14.855469 43.75 14.761719 43.785156 Z M 14.761719 43.785156 "/>
<path style=" stroke:none;fill-rule:nonzero;fill:rgb(74.509804%,44.705882%,19.607843%);fill-opacity:1;" d="M 36.464844 43.882812 C 36.261719 44.027344 36.144531 44.039062 35.964844 43.941406 C 35.65625 43.785156 35.476562 44.039062 35.75 44.246094 C 35.867188 44.328125 35.953125 44.558594 35.953125 44.777344 C 35.953125 44.996094 36.011719 45.273438 36.070312 45.394531 C 36.238281 45.710938 37.046875 45.914062 37.75 45.820312 C 38.261719 45.746094 38.332031 45.699219 38.332031 45.441406 C 38.332031 44.355469 37.15625 43.375 36.464844 43.882812 Z M 36.464844 43.882812 "/>
</g>
</svg>
